<svg width="44" height="44" viewBox="0 0 44 44" fill="none" xmlns="http://www.w3.org/2000/svg">
<g filter="url(#filter0_d)">
<path fill-rule="evenodd" clip-rule="evenodd" d="M24.75 11.5924L28.8125 14.2926L9.64582 27.5863L21 35.2717L27.0416 31.6368L22.6666 28.8326L32.6666 22.0819L41 27.5863L21 40.88L1 27.5863L24.75 11.5924ZM9.33332 35.3766L5.16666 32.5725L1 35.3766V40.8811L9.33332 35.3766ZM17.25 30.2878L13.1875 27.5876L32.3541 14.2939L21 6.60846L14.9583 10.2435L19.3333 13.0476L9.33332 19.7983L1 14.2939L21 1.00019L41 14.2939L17.25 30.2878ZM32.6667 6.50442L36.8334 9.30856L41 6.50442V1L32.6667 6.50442Z" fill="#F8F92E"/>
</g>
<defs>
<filter id="filter0_d" x="0" y="0" width="44" height="43.8811" filterUnits="userSpaceOnUse" color-interpolation-filters="sRGB">
<feFlood flood-opacity="0" result="BackgroundImageFix"/>
<feColorMatrix in="SourceAlpha" type="matrix" values="0 0 0 0 0 0 0 0 0 0 0 0 0 0 0 0 0 0 127 0"/>
<feOffset dx="1" dy="1"/>
<feGaussianBlur stdDeviation="1"/>
<feColorMatrix type="matrix" values="0 0 0 0 0 0 0 0 0 0 0 0 0 0 0 0 0 0 0.05 0"/>
<feBlend mode="normal" in2="BackgroundImageFix" result="effect1_dropShadow"/>
<feBlend mode="normal" in="SourceGraphic" in2="effect1_dropShadow" result="shape"/>
</filter>
</defs>
</svg>
